<svg width="14" height="14" viewBox="0 0 14 14" fill="none" xmlns="http://www.w3.org/2000/svg">
<path d="M6.66453 0.853638C3.03659 0.853638 0.097168 3.76291 0.097168 7.35364C0.097168 10.9444 3.03659 13.8536 6.66453 13.8536C10.2925 13.8536 13.2319 10.9444 13.2319 7.35364C13.2319 3.76291 10.2925 0.853638 6.66453 0.853638ZM8.17661 10.0296L5.84096 8.34961C5.75887 8.28932 5.7112 8.19497 5.7112 8.09537V3.68428C5.7112 3.5113 5.8542 3.36977 6.02897 3.36977H7.30008C7.47485 3.36977 7.61785 3.5113 7.61785 3.68428V7.29335L9.29941 8.50424C9.44241 8.60646 9.47154 8.80303 9.36826 8.94456L8.62149 9.9615C8.51821 10.1004 8.31961 10.1319 8.17661 10.0296Z" fill="#36C802"/>
</svg>
