<svg width="22" height="16" viewBox="0 0 22 16" fill="none" xmlns="http://www.w3.org/2000/svg">
<path d="M0.78125 3.375H21.0938C21.301 3.375 21.4997 3.29269 21.6462 3.14618C21.7927 2.99966 21.875 2.80095 21.875 2.59375V1.03125C21.875 0.824049 21.7927 0.625336 21.6462 0.478823C21.4997 0.33231 21.301 0.25 21.0938 0.25H0.78125C0.57405 0.25 0.375336 0.33231 0.228823 0.478823C0.0823101 0.625336 0 0.824049 0 1.03125L0 2.59375C0 2.80095 0.0823101 2.99966 0.228823 3.14618C0.375336 3.29269 0.57405 3.375 0.78125 3.375ZM21.0938 12.75H0.78125C0.57405 12.75 0.375336 12.8323 0.228823 12.9788C0.0823101 13.1253 0 13.324 0 13.5312L0 15.0938C0 15.301 0.0823101 15.4997 0.228823 15.6462C0.375336 15.7927 0.57405 15.875 0.78125 15.875H21.0938C21.301 15.875 21.4997 15.7927 21.6462 15.6462C21.7927 15.4997 21.875 15.301 21.875 15.0938V13.5312C21.875 13.324 21.7927 13.1253 21.6462 12.9788C21.4997 12.8323 21.301 12.75 21.0938 12.75ZM21.2485 6.5H8.43896C8.35668 6.49994 8.27519 6.5161 8.19915 6.54756C8.12312 6.57902 8.05403 6.62516 7.99584 6.68334C7.93766 6.74153 7.89152 6.81062 7.86006 6.88665C7.8286 6.96269 7.81244 7.04418 7.8125 7.12646V8.99854C7.81244 9.08082 7.8286 9.16231 7.86006 9.23835C7.89152 9.31438 7.93766 9.38347 7.99584 9.44166C8.05403 9.49984 8.12312 9.54598 8.19915 9.57744C8.27519 9.6089 8.35668 9.62506 8.43896 9.625H21.2485C21.3308 9.62506 21.4123 9.6089 21.4883 9.57744C21.5644 9.54598 21.6335 9.49984 21.6917 9.44166C21.7498 9.38347 21.796 9.31438 21.8274 9.23835C21.8589 9.16231 21.8751 9.08082 21.875 8.99854V7.12646C21.8751 7.04418 21.8589 6.96269 21.8274 6.88665C21.796 6.81062 21.7498 6.74153 21.6917 6.68334C21.6335 6.62516 21.5644 6.57902 21.4883 6.54756C21.4123 6.5161 21.3308 6.49994 21.2485 6.5Z" fill="#222222"/>
</svg>
