<svg width="20" height="22" viewBox="0 0 20 22" fill="none" xmlns="http://www.w3.org/2000/svg">
<path d="M9.62503 22C11.1427 22 12.3737 20.7689 12.3737 19.25H6.87632C6.87632 20.7689 8.10737 22 9.62503 22ZM18.8801 15.5671C18.0499 14.6751 16.4966 13.3332 16.4966 8.9375C16.4966 5.59883 14.1557 2.92617 10.9992 2.27047V1.375C10.9992 0.615742 10.3839 0 9.62503 0C8.8662 0 8.25089 0.615742 8.25089 1.375V2.27047C5.0944 2.92617 2.75347 5.59883 2.75347 8.9375C2.75347 13.3332 1.20015 14.6751 0.369991 15.5671C0.112178 15.8443 -0.00211873 16.1756 2.97081e-05 16.5C0.00475627 17.2047 0.557764 17.875 1.37933 17.875H17.8707C18.6923 17.875 19.2457 17.2047 19.25 16.5C19.2522 16.1756 19.1379 15.8439 18.8801 15.5671Z" fill="#222222"/>
</svg>
