<svg width="17" height="12" viewBox="0 0 17 12" fill="none" xmlns="http://www.w3.org/2000/svg">
<path d="M11.1867 3.88922L13.5832 1.26727C14.0556 0.799688 13.721 0 13.0527 0H1.67382C1.00556 0 0.670959 0.799688 1.14338 1.26727L5.46884 6V9.65438C5.46884 9.94945 5.60926 10.2272 5.84773 10.4044L7.74192 11.8106C8.23589 12.1772 8.88971 11.974 9.14427 11.4926C8.28207 10.673 7.74216 9.52383 7.74216 8.25C7.74216 6.14555 9.21152 4.37883 11.1867 3.88922ZM12.2888 4.5C10.1962 4.5 8.49993 6.17883 8.49993 8.25C8.49993 10.3212 10.1962 12 12.2888 12C14.3814 12 16.0776 10.3212 16.0776 8.25C16.0776 6.17883 14.3814 4.5 12.2888 4.5ZM12.6677 10.1222V10.5C12.6677 10.6036 12.5829 10.6875 12.4782 10.6875H12.0993C11.9947 10.6875 11.9099 10.6036 11.9099 10.5V10.1182C11.6426 10.1046 11.3825 10.0123 11.167 9.85219C11.0747 9.78351 11.07 9.64664 11.1536 9.56766L11.4318 9.30492C11.4974 9.24305 11.595 9.24023 11.6717 9.28781C11.7633 9.34453 11.8673 9.375 11.9753 9.375H12.6409C12.7948 9.375 12.9203 9.23625 12.9203 9.06586C12.9203 8.92641 12.8349 8.80359 12.7127 8.7675L11.647 8.45109C11.2068 8.32031 10.8992 7.90219 10.8992 7.43414C10.8992 6.85945 11.3503 6.39258 11.9097 6.37781V6C11.9097 5.89641 11.9944 5.8125 12.0991 5.8125H12.478C12.5827 5.8125 12.6674 5.89641 12.6674 6V6.3818C12.9348 6.39539 13.1948 6.4875 13.4103 6.64781C13.5026 6.71648 13.5074 6.85336 13.4238 6.93234L13.1455 7.19508C13.0799 7.25695 12.9824 7.25977 12.9057 7.21219C12.814 7.15523 12.7101 7.125 12.6021 7.125H11.9364C11.7825 7.125 11.657 7.26375 11.657 7.43414C11.657 7.57359 11.7425 7.69641 11.8647 7.7325L12.9303 8.04891C13.3705 8.17969 13.6781 8.59781 13.6781 9.06586C13.6781 9.64078 13.2272 10.1074 12.6677 10.1222Z" fill="#90A703"/>
</svg>
