<svg width="17" height="15" viewBox="0 0 17 15" fill="none" xmlns="http://www.w3.org/2000/svg">
<path d="M15.8592 5.84069L15.1894 5.17779C14.912 4.90319 14.4622 4.90319 14.1848 5.17779L14.0173 5.34352L10.6684 2.02897L10.8358 1.86324C11.1133 1.58864 11.1133 1.14345 10.8358 0.868877L10.1661 0.205949C9.88862 -0.0686497 9.43881 -0.0686497 9.1614 0.205949L5.4776 3.85196C5.20015 4.12656 5.20015 4.57176 5.4776 4.84633L6.14737 5.50922C6.42481 5.78382 6.87462 5.78382 7.15203 5.50922L7.31948 5.34349L8.4916 6.50359L6.09278 8.8778L5.92533 8.71207C5.55542 8.34595 4.95568 8.34595 4.58577 8.71207L1.1893 12.0738C0.819386 12.4399 0.819386 13.0335 1.1893 13.3996L2.52887 14.7254C2.89878 15.0915 3.49852 15.0915 3.86843 14.7254L7.26493 11.3637C7.63485 10.9976 7.63485 10.404 7.26493 10.0379L7.09748 9.87219L9.49629 7.49798L10.6684 8.65807L10.501 8.82381C10.2235 9.0984 10.2235 9.5436 10.501 9.81817L11.1707 10.4811C11.4482 10.7557 11.898 10.7557 12.1754 10.4811L15.8592 6.83505C16.1366 6.56048 16.1366 6.11529 15.8592 5.84069Z" fill="#CC586D"/>
</svg>
